<?xml version="1.0" encoding="utf-8"?>
<svg xmlns="http://www.w3.org/2000/svg" viewBox="62.5 26.541 180.651 226.884" width="180.651px" height="226.884px">
  <rect x="62.5" y="26.541" width="180.651" height="226.884" style="stroke: rgb(0, 0, 0); fill: rgb(21, 67, 96); fill-opacity: 0.62;" rx="5.993" ry="5.993"/>
  <rect x="70.205" y="34.247" width="43.664" height="45.377" style="stroke: rgb(0, 0, 0); fill: rgba(21, 67, 96, 0.51); fill-opacity: 0.6;" rx="7.705" ry="7.705"/>
  <rect x="128.424" y="34.247" width="43.664" height="45.377" style="stroke: rgb(0, 0, 0); fill: rgb(157, 178, 190); fill-opacity: 0.6;" rx="7.705" ry="7.705"/>
  <rect x="189.212" y="34.247" width="43.664" height="45.377" style="stroke: rgb(0, 0, 0); fill: rgb(255, 255, 255); fill-opacity: 0.6;" rx="7.705" ry="7.705"/>
  <rect x="71.061" y="92.466" width="43.664" height="45.377" style="stroke: rgb(0, 0, 0); fill: rgb(157, 178, 190); fill-opacity: 0.6;" rx="7.705" ry="7.705"/>
  <rect x="129.28" y="92.466" width="43.664" height="45.377" style="stroke: rgb(0, 0, 0); fill: rgb(255, 255, 255); fill-opacity: 0.6;" rx="7.705" ry="7.705"/>
  <rect x="190.068" y="92.466" width="43.664" height="45.377" style="stroke: rgb(0, 0, 0); fill: rgb(157, 178, 190); fill-opacity: 0.6;" rx="7.705" ry="7.705"/>
  <rect x="71.061" y="147.261" width="43.664" height="45.377" style="stroke: rgb(0, 0, 0); fill: rgb(157, 178, 190); fill-opacity: 0.6;" rx="7.705" ry="7.705"/>
  <rect x="129.28" y="147.261" width="43.664" height="45.377" style="stroke: rgb(0, 0, 0); fill: rgb(72, 106, 127); fill-opacity: 0.6;" rx="7.705" ry="7.705"/>
  <rect x="190.068" y="147.261" width="43.664" height="45.377" style="stroke: rgb(0, 0, 0); fill: rgb(72, 106, 127); fill-opacity: 0.6;" rx="7.705" ry="7.705"/>
  <rect x="71.917" y="200.343" width="43.664" height="45.377" style="stroke: rgb(0, 0, 0); fill: rgb(72, 106, 127); fill-opacity: 0.6;" rx="7.705" ry="7.705"/>
  <rect x="130.136" y="200.343" width="43.664" height="45.377" style="stroke: rgb(0, 0, 0); fill: rgb(255, 255, 255); fill-opacity: 0.6;" rx="7.705" ry="7.705"/>
  <rect x="190.924" y="200.343" width="43.664" height="45.377" style="stroke: rgb(0, 0, 0); fill: rgb(255, 255, 255); fill-opacity: 0.6;" rx="7.705" ry="7.705"/>
</svg>